<svg width="12" height="12" viewBox="0 0 12 12" fill="none" xmlns="http://www.w3.org/2000/svg">
<path d="M0.887832 5.67721C0.790482 5.88138 0.790482 6.11859 0.887832 6.32277C0.97199 6.49928 1.11811 6.5966 1.19827 6.64567C1.28114 6.69641 1.3867 6.74849 1.4896 6.79925L3.67324 7.87712L4.02564 10.2881C4.04221 10.4016 4.05921 10.5181 4.08192 10.6126C4.10389 10.7039 4.15142 10.8729 4.29334 11.0073C4.45752 11.1629 4.68313 11.236 4.90735 11.2064C5.10117 11.1808 5.23879 11.0719 5.3102 11.0108C5.38402 10.9477 5.46612 10.8633 5.54614 10.7811L7.24469 9.03725L9.64383 9.44873C9.75694 9.46816 9.87299 9.48808 9.96988 9.49576C10.0636 9.50318 10.239 9.51035 10.4109 9.417C10.6097 9.30902 10.7491 9.11708 10.7904 8.89465C10.826 8.70234 10.7649 8.5377 10.7289 8.45088C10.6917 8.36111 10.6368 8.2569 10.5834 8.15532L9.44993 5.99999L10.5834 3.84465C10.6368 3.74307 10.6917 3.63886 10.7289 3.54909C10.7649 3.46227 10.826 3.29763 10.7904 3.10533C10.7491 2.88289 10.6097 2.69096 10.4109 2.58298C10.239 2.48963 10.0636 2.4968 9.96988 2.50422C9.873 2.51189 9.75696 2.53182 9.64385 2.55124L7.24469 2.96273L5.54612 1.21881C5.46611 1.13663 5.38402 1.05232 5.3102 0.989164C5.23879 0.928063 5.10117 0.819141 4.90735 0.793546C4.68313 0.763936 4.45752 0.837087 4.29334 0.992633C4.15142 1.12709 4.1039 1.29604 4.08192 1.38742C4.05921 1.48188 4.04221 1.59834 4.02564 1.71183L3.67324 4.12286L1.48963 5.2007C1.38673 5.25147 1.28114 5.30356 1.19827 5.3543C1.11811 5.40338 0.97199 5.5007 0.887832 5.67721Z" fill="url(#paint0_linear_1_2143)"/>
<defs>
<linearGradient id="paint0_linear_1_2143" x1="0.814819" y1="5.99999" x2="10.8012" y2="5.99999" gradientUnits="userSpaceOnUse">
<stop stop-color="#231F20"/>
<stop offset="0.35863" stop-color="#231F20"/>
<stop offset="0.35873" stop-color="#CFCFCF"/>
</linearGradient>
</defs>
</svg>
